<?xml version="1.0" standalone="no"?>
<!DOCTYPE svg PUBLIC "-//W3C//DTD SVG 20010904//EN"
 "http://www.w3.org/TR/2001/REC-SVG-20010904/DTD/svg10.dtd">
<svg version="1.0" xmlns="http://www.w3.org/2000/svg"
 width="626.000000pt" height="626.000000pt" viewBox="0 0 626.000000 626.000000"
 preserveAspectRatio="xMidYMid meet">
<metadata>
Created by potrace 1.11, written by Peter Selinger 2001-2013
</metadata>
<g transform="translate(0.000000,626.000000) scale(0.100000,-0.100000)"
fill="#000000" stroke="none">
<path d="M2830 6245 c-364 -40 -660 -118 -979 -258 -96 -43 -315 -159 -371
-197 -14 -10 -52 -35 -85 -56 -320 -208 -659 -547 -869 -869 -22 -33 -47 -71
-56 -85 -73 -110 -204 -375 -266 -540 -324 -862 -256 -1832 185 -2617 165
-293 292 -462 521 -693 151 -152 256 -242 410 -352 533 -377 1166 -578 1820
-578 642 0 1272 205 1821 591 136 96 408 343 520 474 76 90 128 153 170 210
547 744 739 1702 518 2596 -95 386 -251 731 -484 1067 -195 282 -530 607 -820
796 -33 22 -71 47 -85 56 -110 73 -375 204 -540 266 -445 167 -969 238 -1410
189z m-565 -377 c122 -48 299 -140 405 -208 52 -34 99 -66 104 -70 13 -13
-343 -1070 -363 -1077 -71 -24 -318 -136 -476 -215 -210 -105 -507 -274 -557
-316 -19 -15 -11 -19 -233 113 -66 39 -187 111 -270 160 -82 48 -165 97 -182
107 -18 11 -33 28 -33 38 0 45 136 385 227 565 62 124 70 135 176 240 169 167
264 244 467 379 184 121 404 232 595 300 56 19 51 20 140 -16z m2047 -55 c148
-64 381 -196 506 -287 283 -205 562 -487 723 -731 118 -178 249 -412 249 -445
0 -5 -41 17 -92 51 -97 64 -344 189 -468 238 -73 28 -78 33 -210 178 -74 82
-234 261 -355 398 -121 137 -240 272 -265 300 -160 177 -170 190 -170 236 0
42 8 89 16 89 1 0 31 -12 66 -27z m-228 -245 c23 -24 73 -79 112 -123 39 -44
151 -170 249 -280 98 -110 223 -252 279 -315 91 -103 152 -171 239 -266 l29
-32 -52 -153 c-28 -85 -97 -270 -153 -412 -80 -201 -106 -258 -122 -262 -19
-5 -199 -24 -755 -79 -140 -14 -291 -30 -335 -35 -44 -6 -120 -13 -168 -17
l-88 -7 -32 39 c-18 21 -52 62 -77 89 -25 28 -76 86 -115 130 -38 43 -92 104
-120 135 -27 30 -79 89 -115 130 -36 41 -109 120 -162 176 -54 55 -98 105 -98
111 0 17 370 1127 378 1135 12 12 427 55 687 71 28 2 124 4 214 5 l164 2 41
-42z m-3429 -1413 c39 -23 108 -64 155 -91 47 -28 164 -97 260 -154 96 -57
176 -104 177 -104 0 -1 6 -118 12 -260 11 -264 45 -576 82 -755 27 -134 26
-140 -37 -239 -31 -48 -73 -112 -92 -142 -19 -30 -54 -84 -77 -120 -23 -36
-64 -100 -91 -143 -188 -299 -221 -347 -234 -347 -17 0 -203 130 -285 200
-148 127 -157 139 -198 280 -96 333 -135 625 -124 928 8 199 19 307 48 462 26
134 51 188 196 408 89 134 96 141 116 130 12 -6 54 -30 92 -53z m4089 -698
c22 -34 71 -109 109 -167 100 -150 200 -319 305 -516 l92 -170 -36 -70 c-20
-38 -67 -125 -104 -194 -37 -69 -89 -165 -115 -215 -26 -49 -73 -137 -105
-195 -31 -58 -81 -150 -110 -205 -131 -248 -204 -381 -213 -387 -6 -3 -35 -9
-66 -12 -31 -4 -90 -13 -131 -21 -159 -30 -488 -61 -745 -71 l-170 -6 -35 62
c-19 35 -46 82 -60 106 -32 55 -208 359 -230 399 -44 75 -92 159 -153 264 -37
62 -67 115 -67 118 0 2 -10 20 -23 41 -66 104 -97 162 -97 177 0 15 127 268
150 300 8 11 73 133 185 350 43 83 98 188 122 235 24 47 50 90 56 96 7 7 91
19 187 28 96 9 216 21 265 27 50 5 158 16 240 24 83 9 249 26 370 39 121 13
247 24 280 24 l60 1 39 -62z m1291 -688 c-21 -184 -101 -530 -145 -624 -5 -11
-25 -62 -45 -114 -45 -117 -143 -314 -201 -404 -24 -37 -44 -70 -44 -73 0 -12
-91 -136 -213 -291 -127 -160 -485 -493 -530 -493 -9 0 -17 28 -25 84 -6 47
-28 152 -49 234 l-37 150 43 83 c24 46 72 136 106 199 34 63 86 160 115 215
29 55 74 138 100 185 26 47 78 144 115 215 122 230 203 380 217 397 7 9 78 49
158 89 193 97 384 214 426 260 10 11 19 18 20 16 2 -2 -3 -59 -11 -128z
m-4371 -323 c293 -72 448 -103 766 -153 91 -14 174 -29 185 -33 11 -4 42 -45
69 -91 27 -46 65 -113 86 -149 98 -169 186 -321 220 -380 83 -143 151 -261
219 -376 39 -67 71 -127 71 -132 0 -6 -10 -26 -23 -44 -28 -42 -330 -455 -355
-487 -22 -28 -23 -28 -252 13 -506 90 -632 113 -870 155 -96 17 -204 36 -239
44 l-64 13 -88 114 c-102 132 -183 251 -304 445 -26 41 -135 237 -135 241 0 3
42 70 93 149 103 163 265 416 375 590 43 67 80 115 89 115 9 0 80 -15 157 -34z
m216 -1895 c109 -19 277 -49 510 -91 58 -11 184 -33 280 -50 151 -27 187 -37
265 -74 101 -49 266 -116 284 -116 7 0 9 -5 5 -12 -8 -13 -262 -6 -429 12
-325 35 -685 144 -999 301 -86 44 -110 66 -58 55 15 -3 79 -15 142 -25z"/>
</g>
</svg>
